<svg width="57" height="50" viewBox="0 0 57 50" fill="none" xmlns="http://www.w3.org/2000/svg">
<path d="M29.154 37.2395C27.4254 37.2395 25.7675 37.8568 24.5451 38.9557C23.3227 40.0545 22.636 41.5449 22.636 43.0989C22.636 44.6529 23.3227 46.1432 24.5451 47.2421C25.7675 48.3409 27.4254 48.9583 29.154 48.9582C30.8827 48.9583 32.5406 48.3409 33.763 47.2421C34.9853 46.1432 35.6721 44.6529 35.6721 43.0989C35.6721 41.5449 34.9853 40.0545 33.763 38.9557C32.5406 37.8568 30.8827 37.2395 29.154 37.2395ZM25.2432 43.0989C25.2432 42.1665 25.6553 41.2723 26.3887 40.613C27.1221 39.9536 28.1168 39.5833 29.154 39.5833C30.1913 39.5833 31.186 39.9536 31.9194 40.613C32.6528 41.2723 33.0649 42.1665 33.0649 43.0989C33.0649 44.0313 32.6528 44.9255 31.9194 45.5848C31.186 46.2441 30.1913 46.6145 29.154 46.6145C28.1168 46.6145 27.1221 46.2441 26.3887 45.5848C25.6553 44.9255 25.2432 44.0313 25.2432 43.0989Z" fill="white"/>
<path d="M28.6395 42.0574C27.7752 42.0574 26.9462 42.366 26.335 42.9155C25.7239 43.4649 25.3805 44.2101 25.3805 44.9871C25.3805 45.7641 25.7239 46.5092 26.335 47.0587C26.9462 47.6081 27.7752 47.9167 28.6395 47.9167C29.5038 47.9167 30.3328 47.6081 30.944 47.0587C31.5552 46.5092 31.8985 45.7641 31.8985 44.9871C31.8985 44.2101 31.5552 43.4649 30.944 42.9155C30.3328 42.366 29.5038 42.0574 28.6395 42.0574ZM26.6841 44.9871C26.6841 44.5209 26.8901 44.0738 27.2568 43.7441C27.6235 43.4144 28.1209 43.2292 28.6395 43.2292C29.1581 43.2292 29.6555 43.4144 30.0222 43.7441C30.3889 44.0738 30.5949 44.5209 30.5949 44.9871C30.5949 45.4533 30.3889 45.9004 30.0222 46.23C29.6555 46.5597 29.1581 46.7449 28.6395 46.7449C28.1209 46.7449 27.6235 46.5597 27.2568 46.23C26.8901 45.9004 26.6841 45.4533 26.6841 44.9871Z" fill="white"/>
<path d="M50.2647 32.4253C48.3059 33.0379 46.3724 32.8945 44.4642 32.3602C43.8702 32.1907 43.8197 32.0213 43.9713 31.3306C42.7834 30.5747 41.6587 29.7406 40.951 28.2027C41.823 27.9421 42.3917 28.6328 43.112 28.7631C43.3395 27.9942 43.5669 27.2253 43.7818 26.4564C44.8054 22.7811 45.8037 19.1059 46.8274 15.4437C46.9537 14.9876 46.8274 14.7269 46.6125 14.2969C46.2334 13.554 45.8037 13.7625 45.3235 13.8538C41.9494 14.5184 38.6384 14.1274 35.3779 12.9936C33.5202 12.355 31.6499 11.8597 29.6406 12.0161V36.3351C29.7796 36.3221 29.9312 36.3091 30.1587 36.283C30.2598 36.8825 30.3483 37.482 30.4494 38.1336C30.8664 38.1336 29.4889 38.0735 29.6406 38.5818C27.9219 38.4012 29.6911 38.7773 29.6406 38.5818C30.4241 38.6339 28.8571 39.3066 29.6406 39.3327C30.8159 39.3848 29.4384 38.5877 30.4494 39.3176C23.0818 37.7667 28.9002 39.072 29.1529 39.3327L27.4038 38.7752C30.3498 37.8238 31.0986 38.7752 27.4038 38.7752C28.8318 37.7977 26.0661 38.1947 27.6458 38.312C30.1733 37.413 27.6458 38.312 25.5966 39.3718C25.9631 39.3718 26.2664 39.1763 26.3675 38.7462C26.4686 38.29 26.7214 38.1727 27.1258 38.1858C27.2142 37.5472 27.3027 36.9216 27.4038 36.2569C27.5807 36.296 27.7197 36.3221 27.884 36.3612V11.8467C27.0626 11.9249 26.2411 11.9249 25.4576 12.1204C23.8148 12.5244 22.1972 13.0848 20.5543 13.5149C17.6857 14.2578 14.8044 14.4533 11.8978 13.7886C11.4807 13.6974 11.3038 13.8668 11.0005 14.2056C10.4571 14.8182 10.7099 15.3655 10.8741 15.965C12.0241 20.1876 13.1868 24.4233 14.3368 28.6459C14.3368 28.6849 14.3747 28.711 14.4379 28.8153C14.8044 28.6589 15.1835 28.5025 15.5626 28.3331C15.7016 28.2809 15.828 28.1767 15.967 28.1636C16.1313 28.1376 16.2956 28.1897 16.4598 28.2027C16.4219 28.3852 16.4346 28.6068 16.3461 28.7501C15.6511 29.9752 14.6148 30.718 13.5154 31.4218C13.7681 31.9301 13.5154 32.2429 13.1362 32.3211C12.0494 32.5166 10.95 32.7642 9.85053 32.7642C8.87745 32.7642 7.89174 32.4905 6.91866 32.282C6.50163 32.1907 6.22361 31.9171 6.53954 31.3827C5.38955 30.4965 4.12581 29.8188 3.53186 28.0985C4.3912 27.9942 4.95988 28.7501 5.70548 28.7631C6.04669 27.4859 6.37526 26.2087 6.7291 24.9315C7.60108 21.7516 8.48569 18.5716 9.38294 15.4046C9.50932 14.9746 9.47141 14.6878 9.15547 14.3881C8.75108 14.0101 8.59943 13.4628 8.73844 12.8763C8.87745 12.3029 9.20602 11.8988 9.72415 11.7555C10.2676 11.5991 10.7351 11.8337 11.0384 12.342C11.2659 12.7329 11.5313 12.8372 11.9104 12.8633C14.1851 13.0718 16.4725 13.2542 18.7346 12.7069C20.5038 12.2768 22.2351 11.6382 23.9917 11.1039C25.0911 10.765 26.2032 10.4653 27.3027 10.1394C27.4038 10.1134 27.5175 10.0743 27.6944 10.0091C27.5049 9.4487 27.3659 8.88829 27.151 8.38002C26.6582 7.24617 26.6961 6.15143 27.2016 5.05668C27.2648 4.91332 27.3153 4.7439 27.4038 4.61357C28.0356 3.54489 28.3895 2.41105 28.2252 1.09475C28.1999 0.886223 28.2631 0.651635 28.301 0.430079C28.3516 0.14336 28.4906 0 28.7686 0C29.034 0 29.2109 0.0912288 29.2488 0.404013C29.2994 0.808027 29.3499 1.22507 29.3247 1.62909C29.2615 2.54137 29.451 3.3885 29.906 4.11833C30.917 5.72135 30.9801 7.3765 30.184 9.10985C30.0703 9.3705 29.9944 9.65722 29.8681 9.99607C30.6137 10.1785 31.3214 10.3089 32.0038 10.5434C33.6213 11.0778 35.2263 11.7034 36.8439 12.2377C39.3587 13.0588 41.9367 13.2021 44.54 13.0066C44.818 12.9806 45.0834 12.9806 45.3614 12.9415C45.8416 12.8893 46.284 12.8372 46.6252 12.2638C47.0927 11.4948 47.9268 11.56 48.4702 12.2377C49.0263 12.9415 49.001 13.8668 48.3691 14.4402C48.1037 14.6748 48.0026 14.8703 48.1164 15.2743C49.3675 19.7445 50.6059 24.2147 51.857 28.6849C51.857 28.711 51.8949 28.7371 51.9708 28.8283C52.4004 28.6328 52.8554 28.3982 53.3229 28.2158C53.4999 28.1506 53.7147 28.1767 53.9043 28.1636C53.8537 28.3852 53.8537 28.6328 53.7526 28.8153C53.0828 30.0143 52.0718 30.7311 50.9977 31.3697C51.0651 31.8475 50.8208 32.2081 50.2647 32.4514M10.2802 25.909V29.6754C11.5439 29.4799 12.6939 29.2975 13.9324 29.102C12.7318 24.7491 11.5818 20.5656 10.4318 16.3821C10.3813 16.3821 10.3307 16.3951 10.2802 16.4082C10.2802 19.536 10.2802 22.6769 10.2802 25.922M9.74943 22.1165V16.4473C9.74943 16.4473 9.68624 16.4342 9.64833 16.4212C8.49833 20.6047 7.34833 24.7882 6.1857 29.0238C7.39888 29.4017 8.54888 29.6233 9.74943 29.5712C9.74943 27.0819 9.74943 24.6578 9.74943 22.1165ZM49.4433 22.0643C48.9378 20.2528 48.4323 18.4413 47.9268 16.6297C47.8889 16.6297 47.851 16.6427 47.8131 16.6558V29.6494C49.0136 29.4669 50.1763 29.2975 51.3894 29.115C50.7197 26.6779 50.0878 24.4233 49.4306 22.0774M46.9158 29.5712C47.1938 29.6233 47.2697 29.4799 47.2444 29.1672C47.2065 28.5155 47.1938 27.8639 47.1938 27.2123C47.1938 23.8889 47.2191 20.5656 47.2318 17.2553C47.2318 17.0337 47.2065 16.8122 47.2065 16.5906H47.0801C45.9427 20.735 44.8054 24.8794 43.6301 29.1541C44.7675 29.3105 45.7911 29.4408 46.9158 29.5842V29.5712Z" fill="white"/>
<path d="M10.2865 25.8322C10.2865 22.6392 10.2865 19.5113 10.2865 16.3835C10.337 16.3835 10.3876 16.3705 10.4381 16.3574C11.5881 20.5409 12.7381 24.7374 13.9387 29.0773C12.7002 29.2728 11.5628 29.4553 10.2865 29.6508C10.2865 28.2954 10.2865 27.0833 10.2865 25.8322Z" fill="white"/>
<path d="M9.76484 22.1342C9.76484 24.6104 9.76484 27.0345 9.76484 29.5238C8.56429 29.5759 7.41429 29.3543 6.20111 28.9764C7.36375 24.7538 8.51374 20.5703 9.66374 16.3738C9.70165 16.3738 9.72693 16.3868 9.76484 16.3998C9.76484 18.2896 9.76484 20.1793 9.76484 22.1212V22.1342Z" fill="white"/>
<path d="M49.4818 22.0639C50.1263 24.3707 50.7582 26.6384 51.428 29.0625C50.2021 29.2449 49.0521 29.4143 47.8516 29.5968V16.6032C47.8516 16.6032 47.9274 16.5902 47.9653 16.5771C48.4708 18.3887 48.9763 20.2002 49.4944 22.0509L49.4818 22.0639Z" fill="white"/>
<path d="M46.9037 29.5186C45.8296 29.3752 44.7933 29.2449 43.6686 29.0885C44.8439 24.8138 45.9812 20.6694 47.1186 16.512H47.2449C47.2449 16.7466 47.2702 16.9681 47.2702 17.1897C47.2576 20.513 47.2449 23.8363 47.2323 27.1466C47.2323 27.7983 47.2449 28.4499 47.2829 29.1015C47.2955 29.4143 47.2323 29.5577 46.9037 29.5056V29.5186Z" fill="white"/>
<path d="M53.8814 40.0517C51.8681 39.7473 49.8294 39.5906 47.7864 39.5833C40.8161 39.5782 33.9911 41.3325 28.125 44.637C22.2589 41.3325 15.4339 39.5782 8.46359 39.5833C6.42062 39.5906 4.38189 39.7473 2.36855 40.0517C2.00292 40.1026 1.65238 40.2164 1.33706 40.3867C1.02175 40.5569 0.74789 40.7802 0.531237 41.0437C0.314583 41.3072 0.159408 41.6056 0.0746347 41.9219C-0.0101387 42.2382 -0.0228378 42.5661 0.0372675 42.8867C0.180006 43.5269 0.606017 44.0913 1.22198 44.4564C1.83794 44.8214 2.59364 44.9573 3.32353 44.8343C7.34856 44.2226 11.4723 44.3241 15.452 45.1327C19.4317 45.9414 23.1867 47.4409 26.4959 49.5429C26.9716 49.8402 27.541 49.9999 28.125 49.9999C28.709 49.9999 29.2784 49.8402 29.7541 49.5429C33.0633 47.4409 36.8183 45.9414 40.798 45.1327C44.7776 44.3241 48.9014 44.2226 52.9265 44.8343C53.6564 44.9573 54.412 44.8214 55.028 44.4564C55.644 44.0913 56.07 43.5269 56.2127 42.8867C56.2728 42.5661 56.2601 42.2382 56.1754 41.9219C56.0906 41.6056 55.9354 41.3072 55.7188 41.0437C55.5021 40.7802 55.2282 40.5569 54.9129 40.3867C54.5976 40.2164 54.2471 40.1026 53.8814 40.0517Z" fill="white"/>
<path d="M29.154 37.2395C27.4254 37.2395 25.7675 37.8568 24.5451 38.9557C23.3227 40.0545 22.636 41.5449 22.636 43.0989C22.636 44.6529 23.3227 46.1432 24.5451 47.2421C25.7675 48.3409 27.4254 48.9583 29.154 48.9582C30.8827 48.9583 32.5406 48.3409 33.763 47.2421C34.9853 46.1432 35.6721 44.6529 35.6721 43.0989C35.6721 41.5449 34.9853 40.0545 33.763 38.9557C32.5406 37.8568 30.8827 37.2395 29.154 37.2395ZM25.2432 43.0989C25.2432 42.1665 25.6553 41.2723 26.3887 40.613C27.1221 39.9536 28.1168 39.5833 29.154 39.5833C30.1913 39.5833 31.186 39.9536 31.9194 40.613C32.6528 41.2723 33.0649 42.1665 33.0649 43.0989C33.0649 44.0313 32.6528 44.9255 31.9194 45.5848C31.186 46.2441 30.1913 46.6145 29.154 46.6145C28.1168 46.6145 27.1221 46.2441 26.3887 45.5848C25.6553 44.9255 25.2432 44.0313 25.2432 43.0989Z" fill="white"/>
<path d="M28.6395 42.0574C27.7752 42.0574 26.9462 42.366 26.335 42.9155C25.7239 43.4649 25.3805 44.2101 25.3805 44.9871C25.3805 45.7641 25.7239 46.5092 26.335 47.0587C26.9462 47.6081 27.7752 47.9167 28.6395 47.9167C29.5038 47.9167 30.3328 47.6081 30.944 47.0587C31.5552 46.5092 31.8985 45.7641 31.8985 44.9871C31.8985 44.2101 31.5552 43.4649 30.944 42.9155C30.3328 42.366 29.5038 42.0574 28.6395 42.0574ZM26.6841 44.9871C26.6841 44.5209 26.8901 44.0738 27.2568 43.7441C27.6235 43.4144 28.1209 43.2292 28.6395 43.2292C29.1581 43.2292 29.6555 43.4144 30.0222 43.7441C30.3889 44.0738 30.5949 44.5209 30.5949 44.9871C30.5949 45.4533 30.3889 45.9004 30.0222 46.23C29.6555 46.5597 29.1581 46.7449 28.6395 46.7449C28.1209 46.7449 27.6235 46.5597 27.2568 46.23C26.8901 45.9004 26.6841 45.4533 26.6841 44.9871Z" fill="white"/>
<path d="M50.2647 32.4253C48.3059 33.0379 46.3724 32.8945 44.4642 32.3602C43.8702 32.1907 43.8197 32.0213 43.9713 31.3306C42.7834 30.5747 41.6587 29.7406 40.951 28.2027C41.823 27.9421 42.3917 28.6328 43.112 28.7631C43.3395 27.9942 43.5669 27.2253 43.7818 26.4564C44.8054 22.7811 45.8037 19.1059 46.8274 15.4437C46.9537 14.9876 46.8274 14.7269 46.6125 14.2969C46.2334 13.554 45.8037 13.7625 45.3235 13.8538C41.9494 14.5184 38.6384 14.1274 35.3779 12.9936C33.5202 12.355 31.6499 11.8597 29.6406 12.0161V36.3351C29.7796 36.3221 29.9312 36.3091 30.1587 36.283C30.2598 36.8825 30.3483 37.482 30.4494 38.1337C30.8664 38.1337 29.4889 38.0735 29.6406 38.5818C27.9219 38.4012 29.6911 38.7773 29.6406 38.5818C30.4241 38.6339 28.8571 39.3066 29.6406 39.3327C30.8159 39.3848 29.4384 38.5877 30.4494 39.3176C23.0818 37.7667 28.9002 39.072 29.1529 39.3327L27.4038 38.7752C30.3498 37.8238 31.0986 38.7752 27.4038 38.7752C28.8318 37.7977 26.0661 38.1947 27.6458 38.312C30.1733 37.413 27.6458 38.312 25.5966 39.3718C25.9631 39.3718 26.2664 39.1763 26.3675 38.7462C26.4686 38.29 26.7214 38.1727 27.1258 38.1858C27.2142 37.5472 27.3027 36.9216 27.4038 36.2569C27.5807 36.296 27.7197 36.3221 27.884 36.3612V11.8467C27.0626 11.9249 26.2411 11.9249 25.4576 12.1204C23.8148 12.5244 22.1972 13.0848 20.5543 13.5149C17.6857 14.2578 14.8044 14.4533 11.8978 13.7886C11.4807 13.6974 11.3038 13.8668 11.0005 14.2056C10.4571 14.8182 10.7099 15.3655 10.8741 15.965C12.0241 20.1876 13.1868 24.4233 14.3368 28.6459C14.3368 28.685 14.3747 28.711 14.4379 28.8153C14.8044 28.6589 15.1835 28.5025 15.5626 28.3331C15.7016 28.2809 15.828 28.1767 15.967 28.1636C16.1313 28.1376 16.2956 28.1897 16.4598 28.2027C16.4219 28.3852 16.4346 28.6068 16.3461 28.7501C15.6511 29.9752 14.6148 30.7181 13.5154 31.4218C13.7681 31.9301 13.5154 32.2429 13.1362 32.3211C12.0494 32.5166 10.95 32.7642 9.85053 32.7642C8.87745 32.7642 7.89174 32.4905 6.91866 32.282C6.50163 32.1907 6.22361 31.9171 6.53954 31.3827C5.38955 30.4965 4.12581 29.8188 3.53186 28.0985C4.3912 27.9942 4.95988 28.7501 5.70548 28.7631C6.04669 27.4859 6.37526 26.2087 6.7291 24.9315C7.60108 21.7516 8.48569 18.5716 9.38294 15.4046C9.50932 14.9746 9.4714 14.6878 9.15547 14.3881C8.75108 14.0101 8.59943 13.4628 8.73844 12.8763C8.87745 12.3029 9.20602 11.8988 9.72415 11.7555C10.2676 11.5991 10.7351 11.8337 11.0384 12.342C11.2659 12.7329 11.5313 12.8372 11.9104 12.8633C14.1851 13.0718 16.4725 13.2542 18.7346 12.7069C20.5038 12.2768 22.2351 11.6382 23.9917 11.1039C25.0911 10.765 26.2032 10.4653 27.3027 10.1394C27.4038 10.1134 27.5175 10.0743 27.6944 10.0091C27.5049 9.4487 27.3659 8.88829 27.151 8.38002C26.6582 7.24618 26.6961 6.15143 27.2016 5.05668C27.2648 4.91332 27.3153 4.7439 27.4038 4.61357C28.0356 3.54489 28.3895 2.41105 28.2252 1.09475C28.1999 0.886223 28.2631 0.651635 28.301 0.430079C28.3516 0.14336 28.4906 0 28.7686 0C29.034 0 29.2109 0.0912288 29.2488 0.404013C29.2994 0.808027 29.3499 1.22507 29.3247 1.62909C29.2615 2.54137 29.451 3.3885 29.906 4.11833C30.917 5.72135 30.9801 7.3765 30.184 9.10985C30.0703 9.3705 29.9944 9.65722 29.8681 9.99607C30.6137 10.1785 31.3214 10.3089 32.0038 10.5434C33.6213 11.0778 35.2263 11.7034 36.8439 12.2377C39.3587 13.0588 41.9367 13.2021 44.54 13.0066C44.818 12.9806 45.0834 12.9806 45.3614 12.9415C45.8416 12.8893 46.284 12.8372 46.6252 12.2638C47.0927 11.4948 47.9268 11.56 48.4702 12.2377C49.0263 12.9415 49.001 13.8668 48.3691 14.4402C48.1037 14.6748 48.0026 14.8703 48.1164 15.2743C49.3675 19.7445 50.6059 24.2147 51.857 28.685C51.857 28.711 51.8949 28.7371 51.9708 28.8283C52.4004 28.6328 52.8554 28.3982 53.3229 28.2158C53.4999 28.1506 53.7147 28.1767 53.9043 28.1636C53.8537 28.3852 53.8537 28.6328 53.7526 28.8153C53.0828 30.0143 52.0718 30.7311 50.9977 31.3697C51.0651 31.8475 50.8208 32.2081 50.2647 32.4514M10.2802 25.909V29.6754C11.5439 29.4799 12.6939 29.2975 13.9324 29.102C12.7318 24.7491 11.5818 20.5656 10.4318 16.3821C10.3813 16.3821 10.3307 16.3951 10.2802 16.4082C10.2802 19.536 10.2802 22.6769 10.2802 25.922M9.74943 22.1165V16.4473C9.74943 16.4473 9.68624 16.4342 9.64833 16.4212C8.49833 20.6047 7.34833 24.7882 6.1857 29.0238C7.39888 29.4018 8.54888 29.6233 9.74943 29.5712C9.74943 27.0819 9.74943 24.6579 9.74943 22.1165ZM49.4433 22.0643C48.9378 20.2528 48.4323 18.4413 47.9268 16.6297C47.8889 16.6297 47.851 16.6427 47.8131 16.6558V29.6494C49.0136 29.4669 50.1763 29.2975 51.3894 29.115C50.7197 26.6779 50.0878 24.4233 49.4306 22.0774M46.9158 29.5712C47.1938 29.6233 47.2697 29.4799 47.2444 29.1672C47.2065 28.5155 47.1938 27.8639 47.1938 27.2123C47.1938 23.8889 47.2191 20.5656 47.2318 17.2553C47.2318 17.0337 47.2065 16.8122 47.2065 16.5906H47.0801C45.9427 20.735 44.8054 24.8794 43.6301 29.1541C44.7675 29.3105 45.7911 29.4408 46.9158 29.5842V29.5712Z" fill="white"/>
<path d="M10.2865 25.8322C10.2865 22.6392 10.2865 19.5113 10.2865 16.3835C10.337 16.3835 10.3876 16.3705 10.4381 16.3574C11.5881 20.5409 12.7381 24.7374 13.9387 29.0773C12.7002 29.2728 11.5628 29.4553 10.2865 29.6508C10.2865 28.2954 10.2865 27.0833 10.2865 25.8322Z" fill="white"/>
<path d="M9.76484 22.1342C9.76484 24.6104 9.76484 27.0345 9.76484 29.5238C8.56429 29.5759 7.41429 29.3543 6.20111 28.9764C7.36375 24.7538 8.51374 20.5703 9.66374 16.3738C9.70165 16.3738 9.72693 16.3868 9.76484 16.3998C9.76484 18.2896 9.76484 20.1793 9.76484 22.1212V22.1342Z" fill="white"/>
<path d="M49.4818 22.0639C50.1263 24.3707 50.7582 26.6384 51.428 29.0625C50.2021 29.2449 49.0521 29.4143 47.8516 29.5968V16.6032C47.8516 16.6032 47.9274 16.5902 47.9653 16.5771C48.4708 18.3887 48.9763 20.2002 49.4944 22.0509L49.4818 22.0639Z" fill="white"/>
<path d="M46.9037 29.5186C45.8296 29.3752 44.7933 29.2449 43.6686 29.0885C44.8439 24.8138 45.9812 20.6694 47.1186 16.512H47.2449C47.2449 16.7466 47.2702 16.9681 47.2702 17.1897C47.2576 20.513 47.2449 23.8363 47.2323 27.1466C47.2323 27.7983 47.2449 28.4499 47.2829 29.1015C47.2955 29.4143 47.2323 29.5577 46.9037 29.5056V29.5186Z" fill="white"/>
<path d="M53.8814 40.0517C51.8681 39.7473 49.8294 39.5906 47.7864 39.5833C40.8161 39.5782 33.9911 41.3325 28.125 44.637C22.2589 41.3325 15.4339 39.5782 8.46359 39.5833C6.42062 39.5906 4.38189 39.7473 2.36855 40.0517C2.00292 40.1026 1.65238 40.2164 1.33706 40.3867C1.02175 40.5569 0.74789 40.7802 0.531237 41.0437C0.314583 41.3072 0.159408 41.6056 0.0746347 41.9219C-0.0101387 42.2382 -0.0228378 42.5661 0.0372675 42.8867C0.180006 43.5269 0.606017 44.0913 1.22198 44.4564C1.83794 44.8214 2.59364 44.9573 3.32353 44.8343C7.34856 44.2226 11.4723 44.3241 15.452 45.1327C19.4317 45.9414 23.1867 47.4409 26.4959 49.5429C26.9716 49.8402 27.541 49.9999 28.125 49.9999C28.709 49.9999 29.2784 49.8402 29.7541 49.5429C33.0633 47.4409 36.8183 45.9414 40.798 45.1327C44.7776 44.3241 48.9014 44.2226 52.9265 44.8343C53.6564 44.9573 54.412 44.8214 55.028 44.4564C55.644 44.0913 56.07 43.5269 56.2127 42.8867C56.2728 42.5661 56.2601 42.2382 56.1754 41.9219C56.0906 41.6056 55.9354 41.3072 55.7188 41.0437C55.5021 40.7802 55.2282 40.5569 54.9129 40.3867C54.5976 40.2164 54.2471 40.1026 53.8814 40.0517Z" fill="white"/>
</svg>
